# xmcd
#
# Track frame offsets: 
#        150
#        15180
#        28029
#        42320
#        54758
#        79213
#        92571
#        111481
#        125752
#        138302
#        154823
#        168237
#
# Disc length: 2405 seconds
#
# Revision: 3
# Processed by: cddbd v1.5.2PL0 Copyright (c) Steve Scherf et al.
# Submitted via: ExactAudioCopy v1.0b4
#
DISCID=9109630c
DTITLE=Elvin Bishop - Don't Let The Bossman Get You Down!
DYEAR=1991
DGENRE=Blues Rock, Modern Electric Blues
TTITLE0=Fannie Mae
TTITLE1=Don't Let The Bossman Get You Down
TTITLE2=Murder In The First Degree
TTITLE3=Kissing In The Dark
TTITLE4=My Whiskey Head Buddies
TTITLE5=Stepping Up In Class
TTITLE6=You Got To Rock 'Em
TTITLE7=Come On In This House
TTITLE8=Soul Food
TTITLE9=Rollin' With My Blues
TTITLE10=Devil's Slide
TTITLE11=Just Your Fool
EXTD=
EXTT0=
EXTT1=
EXTT2=
EXTT3=
EXTT4=
EXTT5=
EXTT6=
EXTT7=
EXTT8=
EXTT9=
EXTT10=
EXTT11=
PLAYORDER=
